<?xml version="1.0" encoding="UTF-8"?>
<svg version="1.1" xmlns="http://www.w3.org/2000/svg" width="126" height="134">
<path d="M0 0 C41.58 0 83.16 0 126 0 C126 44.22 126 88.44 126 134 C84.42 134 42.84 134 0 134 C0 89.78 0 45.56 0 0 Z " fill="#033357" transform="translate(0,0)"/>
<path d="M0 0 C8.35925938 6.32358481 15.50934131 13.20618263 20.26171875 22.7109375 C20.47265625 25.5703125 20.47265625 25.5703125 20.26171875 27.7109375 C18.61171875 28.0409375 16.96171875 28.3709375 15.26171875 28.7109375 C14.77703125 27.9375 14.29234375 27.1640625 13.79296875 26.3671875 C5.13455932 12.9133513 -4.33837818 3.82020778 -20.046875 -0.59375 C-34.931689 -3.39745042 -48.54043303 -1.22962337 -61.36328125 7.03125 C-72.25681272 14.73555679 -79.58651442 24.58520822 -82.73828125 37.7109375 C-83.10408429 41.05890314 -83.1154828 44.34645704 -83.05078125 47.7109375 C-83.05400391 48.54882812 -83.05722656 49.38671875 -83.06054688 50.25 C-82.93532381 64.9580183 -77.9349554 76.10702291 -67.73828125 86.7109375 C-56.97657139 96.32952188 -44.11017327 101.11651114 -29.7265625 100.921875 C-15.86943917 99.94372512 -3.22911167 93.78207511 6.26171875 83.7109375 C8.39250152 81.1257642 10.38159001 78.48320577 12.26171875 75.7109375 C14.24171875 76.2059375 14.24171875 76.2059375 16.26171875 76.7109375 C16.9140625 78.4765625 16.9140625 78.4765625 17.26171875 80.7109375 C10.88528389 93.41044793 -2.29775385 101.43412067 -15.1953125 105.94921875 C-29.30922285 110.17688775 -45.24451432 108.91825171 -58.328125 102.42578125 C-70.22972312 95.84230864 -81.43023672 85.37617865 -86.73828125 72.7109375 C-87.16947266 71.70353516 -87.16947266 71.70353516 -87.609375 70.67578125 C-93.21270607 56.76128925 -92.29146492 38.52474873 -86.51953125 24.81640625 C-82.99157294 17.80948905 -78.2460341 12.24809117 -72.73828125 6.7109375 C-72.22007813 6.15792969 -71.701875 5.60492188 -71.16796875 5.03515625 C-67.26824077 1.2477241 -62.60319252 -1.09305928 -57.80078125 -3.5390625 C-57.13232178 -3.8808252 -56.4638623 -4.22258789 -55.77514648 -4.57470703 C-38.24631925 -13.15632827 -16.16439461 -10.8128548 0 0 Z " fill="#F5F7F8" transform="translate(99.73828125,17.2890625)"/>
<path d="M0 0 C4.62 0 9.24 0 14 0 C18 4 18 4 18.3125 7.4375 C18.05463319 10.37718165 17.59328057 13.11835153 17 16 C17.33 16.33 17.66 16.66 18 17 C18.23828125 18.92578125 18.23828125 18.92578125 18.3125 21.3125 C18.34988281 22.09238281 18.38726562 22.87226562 18.42578125 23.67578125 C18 26 18 26 14 30 C9.38 30 4.76 30 0 30 C0 20.1 0 10.2 0 0 Z " fill="#FCFCFD" transform="translate(32,56)"/>
<path d="M0 0 C2.64 0 5.28 0 8 0 C7.00557619 3.21275384 5.99319631 6.01184346 4.3125 8.9375 C2.61170241 12.90602772 2.93932904 14.82802754 4 19 C4.9826387 21.33772916 6.02770803 23.61779224 7.16015625 25.88671875 C8 28 8 28 8 32 C5.69 32 3.38 32 1 32 C-0.32 29.03 -1.64 26.06 -3 23 C-3.33 25.64 -3.66 28.28 -4 31 C-6.64 31 -9.28 31 -12 31 C-12 21.1 -12 11.2 -12 1 C-9.36 1 -6.72 1 -4 1 C-3.67 2.98 -3.34 4.96 -3 7 C-2.01 4.69 -1.02 2.38 0 0 Z " fill="#F2F4F6" transform="translate(106,55)"/>
<path d="M0 0 C2.97 0 5.94 0 9 0 C10.00692527 4.41511736 11.00434223 8.83232925 12 13.25 C12.28617188 14.50425781 12.57234375 15.75851563 12.8671875 17.05078125 C13.13789062 18.25605469 13.40859375 19.46132812 13.6875 20.703125 C13.93886719 21.81333008 14.19023438 22.92353516 14.44921875 24.06738281 C15 27 15 27 15 31 C12.69 31 10.38 31 8 31 C7.67 29.35 7.34 27.7 7 26 C5.35 26 3.7 26 2 26 C2 27.32 2 28.64 2 30 C-0.64 30 -3.28 30 -6 30 C-5.18932476 25.74964982 -4.37614508 21.49978258 -3.5625 17.25 C-3.33240234 16.0434375 -3.10230469 14.836875 -2.86523438 13.59375 C-2.64287109 12.43359375 -2.42050781 11.2734375 -2.19140625 10.078125 C-1.98717041 9.00981445 -1.78293457 7.94150391 -1.57250977 6.84082031 C-1.11027505 4.54718997 -0.56747123 2.2698849 0 0 Z " fill="#F7F8F9" transform="translate(57,56)"/>
<path d="M0 0 C2.31279611 1.15639806 4.17409828 2.17409828 6 4 C6.04080783 5.99958364 6.04254356 8.00045254 6 10 C3.69 10 1.38 10 -1 10 C-1 9.01 -1 8.02 -1 7 C-1.99 7 -2.98 7 -4 7 C-4 12.94 -4 18.88 -4 25 C-3.01 25 -2.02 25 -1 25 C-1 24.01 -1 23.02 -1 22 C1.31 22 3.62 22 6 22 C5.8125 25.3125 5.8125 25.3125 5 29 C2.36759551 31.33155826 0.51074628 31.91306446 -2.9375 32.5 C-6.2254737 31.96318797 -8.2108079 30.97367813 -10.72338867 28.78320312 C-13.41055004 25.02970787 -12.81227554 20.43388422 -12.6875 16 C-12.70232422 15.01515625 -12.71714844 14.0303125 -12.73242188 13.015625 C-12.67766765 8.24878645 -12.56020085 5.76074334 -9.67578125 1.84375 C-6.15869391 -0.57970288 -4.1945384 -0.59921977 0 0 Z " fill="#F2F5F6" transform="translate(85,55)"/>
<path d="M0 0 C0.56332031 0.25007812 1.12664062 0.50015625 1.70703125 0.7578125 C1.1996821 5.01805315 -0.02187561 7.05489811 -3.04296875 10.0703125 C-3.7184375 10.76769531 -4.39390625 11.46507812 -5.08984375 12.18359375 C-7.71473971 14.05918431 -9.13665179 14.08337666 -12.29296875 13.7578125 C-11.8129939 9.18584863 -10.1993526 7.09642813 -6.98046875 3.8828125 C-5.81064453 2.68011719 -5.81064453 2.68011719 -4.6171875 1.453125 C-2.29296875 -0.2421875 -2.29296875 -0.2421875 0 0 Z " fill="#EFF2F4" transform="translate(121.29296875,6.2421875)"/>
<path d="M0 0 C1.67542976 0.28604898 3.34385343 0.61781233 5 1 C5 3.64 5 6.28 5 9 C3.02 9.99 3.02 9.99 1 11 C-1 9 -1 9 -1.23046875 7.08984375 C-1.11111111 1.11111111 -1.11111111 1.11111111 0 0 Z " fill="#ECEFF2" transform="translate(104,5)"/>
<path d="M0 0 C3.3 0 6.6 0 10 0 C10.33 1.65 10.66 3.3 11 5 C6.99799622 6.60080151 3.95443764 5.29279692 0 4 C0 2.68 0 1.36 0 0 Z " fill="#F6F8F9" transform="translate(114,21)"/>
<path d="M0 0 C1.32 0.33 2.64 0.66 4 1 C4 2.65 4 4.3 4 6 C2.68 6.33 1.36 6.66 0 7 C0 4.69 0 2.38 0 0 Z " fill="#1D4868" transform="translate(39,73)"/>
<path d="M0 0 C1.32 0.33 2.64 0.66 4 1 C3.67 2.65 3.34 4.3 3 6 C2.01 6 1.02 6 0 6 C0 4.02 0 2.04 0 0 Z " fill="#2D5572" transform="translate(39,62)"/>
<path d="M0 0 C0.33 0 0.66 0 1 0 C1.33 3.3 1.66 6.6 2 10 C1.01 10 0.02 10 -1 10 C-0.67 6.7 -0.34 3.4 0 0 Z " fill="#224C6B" transform="translate(61,66)"/>
</svg>
